<svg xmlns="http://www.w3.org/2000/svg" width="59.7" height="38.6">
  <g>
    <path d="M44.8 10.3H19C15.6 10.3 11.2 6 8.3 3 6.2.9 5.3 0 4.6 0h-4a.6.6 0 0 0-.6.8L4 11.1l-2.7 1.3a.6.6 0 0 0-.1 1 25.5 25.5 0 0 0 2 1.8H.7v1.2H5a22.1 22.1 0 0 0 12 3.4h8.2v-1.3H17a21.4 21.4 0 0 1-9.6-2H9v-1.3H5.3A22.7 22.7 0 0 1 2.6 13l2.3-1.2a.6.6 0 0 0 .3-.7l-3.7-10h3a18 18 0 0 1 3 2.7c3.2 3.2 7.6 7.7 11.4 7.7h26a14.1 14.1 0 0 1 7.1 1.7h-4.2v1.2h5.7a1.7 1.7 0 0 1 .3 1c0 1.5-2 3-5.7 3H37.8v1.3h10.3c4.6 0 7-2.2 7-4.3 0-2.8-4.7-5.2-10.3-5.2"/>
    <path d="M35.6 16.4a36.7 36.7 0 0 0-8.2 1 .6.6 0 0 0-.5.6v2.3a.6.6 0 0 0 .5.6 35 35 0 0 0 8.2 1 .6.6 0 0 0 .6-.6V17a.6.6 0 0 0-.6-.6m-.7 4.2a35.4 35.4 0 0 1-6.7-.8v-1.3a37 37 0 0 1 6.7-.8Z"/>
    <path d="M39.3 17.2h1.3a3.4 3.4 0 0 0-3.5-3.4H17v1.3h20.3a2.2 2.2 0 0 1 2.1 2.1"/>
    <path d="M14.8 24h12.8v1.2H14.8z"/>
    <path d="M7.6 24h4.7v1.2H7.6z" />
  </g>
</svg>
