<svg xmlns="http://www.w3.org/2000/svg" viewBox="0 0 1024 1024">
  <path d="M528 187a120 120 0 1 1-68 0V48a34 34 0 0 1 68 0v139zm281 604a120 120 0 1 1 68 0v139a34 34 0 1 1-68 0V791zm-698 0a120 120 0 1 1 67 0v139a34 34 0 0 1-67 0V791zm33-777c19 0 34 15 34 33v411a34 34 0 0 1-67 0V48c0-19 15-34 33-34zm0 722a60 60 0 1 0 0-121 60 60 0 0 0 0 121zM843 14c19 0 34 15 34 33v411a34 34 0 1 1-68 0V48c0-19 15-34 34-34zm0 722a60 60 0 1 0 0-121 60 60 0 0 0 0 121zM494 964a34 34 0 0 1-34-34V520a34 34 0 0 1 68 0v410a34 34 0 0 1-34 34zm0-722a60 60 0 1 0 0 121 60 60 0 0 0 0-121z"/>
</svg>