<svg xmlns="http://www.w3.org/2000/svg" viewBox="0 0 32 32">
    <path d="M23.733 13.467h-.019c-.713 0-1.393.137-2.017.386l.037-.013-.933-1.44V9.107l1.133-.173a.787.787 0 0 0 .732-.939l.001.005a.76.76 0 0 0-.758-.708l-.044.001h.002l-1.973.267a.814.814 0 0 0-.693.8v3.2h-6.067l-.107-.2-.827-1.467-.133-.267h.373a.813.813 0 0 0 .8-.799v-.001a.827.827 0 0 0-.799-.8H8.707a.813.813 0 0 0-.8.799v.001a.8.8 0 0 0 .8.8H10.2l.133.24.507.893.56 1 .133.24-1.173 1.867a5.503 5.503 0 0 0-2.094-.406 5.6 5.6 0 1 0 5.572 6.163l.002-.023h2.443c.29 0 .543-.16.675-.396l.002-.004 2.973-5.333.4.733a5.573 5.573 0 1 0 3.421-1.173h-.022.001zm-12.84 2.666c.569.501.99 1.159 1.194 1.906l.006.027H9.56zm-2.666 7a4 4 0 0 1 0-8l.082-.001c.448 0 .878.073 1.28.209l-.028-.008-1.653 2.4a.783.783 0 0 1-.177 0h.004a1.404 1.404 0 0 0-.894 1.305v.03-.001a1.415 1.415 0 0 0 1.33 1.333h.005c.559 0 1.037-.344 1.236-.831l.003-.009h2.787a3.924 3.924 0 0 1-3.898 3.507h-.037.002zm5.493-5.066a5.547 5.547 0 0 0-1.95-3.392l-.01-.008.68-1.067 2.467 4.36H13.76zm2.507-.827-2.227-4h4.467l-2.24 4zm7.466 5.893a4 4 0 0 1-4-4v-.045a3.99 3.99 0 0 1 1.33-2.978l.004-.003 1.333 2.467a.91.91 0 0 0-.106.537v-.004a1.415 1.415 0 0 0 1.33 1.333h.004c.736 0 1.333-.597 1.333-1.333a1.442 1.442 0 0 0-1.191-1.332l-.009-.001-1.333-2.467c.365-.127.785-.2 1.223-.2h.018-.001a4 4 0 0 1 4 4 4.123 4.123 0 0 1-3.883 3.96h-.011z"/>
</svg>
