<svg xmlns="http://www.w3.org/2000/svg" viewBox="0 0 32 32">
    <path d="M13.2 18.467c-.667 2.667-1.333 5.4-2 8.067a16.61 16.61 0 0 1-.467 1.733c-.267.933-.867 1.267-1.8 1.067-1-.267-1.133-1-.933-1.867.067-.533.267-1 .333-1.533 1.267-5.267 2.6-10.467 3.867-15.733.333-1.333.6-2.867 2.4-2.867s2.267 1.333 2.467 2.733c.2 1.867 1.2 2.733 3 2.867.667.067 1.6.333 1.333 1.333-.2.867-1.067.667-1.667.533-1.4-.4-3-.267-4-1.667-.733.867-.133 1.6 0 2.267.933 3.867 1.867 7.733 2.867 11.533.267 1 .533 2.067-.867 2.4-1.333.333-1.667-.667-1.933-1.667-.733-3.067-1.467-6.067-2.2-9.133-.067-.067-.2-.067-.4-.067zm-3-12.2C9.467 6.134 8.8 6 8.533 7c-.4 1.733-.867 3.4-1.267 5.067-.333 1.067.533 1.133 1.2 1.333.733.2 1.4.333 1.667-.733.4-1.733.8-3.4 1.267-5.267.267-.8-.467-1-1.2-1.133zM17.333 4.6c-.067-1.333-.867-2-2.2-1.933-1.267.067-1.867.933-1.8 2.133.067 1.267.867 1.867 2.133 1.867 1.133-.2 1.867-.8 1.867-2.067zm4.934 24.467L24.8 10.534c0-.133-.067-.2-.2-.2l-.733-.133c-.133 0-.2.067-.2.2l-2.533 18.533c0 .133.067.2.2.2l.733.133c.133 0 .2-.067.2-.2z"/>
</svg>
