<svg xmlns="http://www.w3.org/2000/svg" viewBox="0 0 32 32">
    <path d="m5.818 23.364.653 2.428 2.471.543-2.471.644-.653 2.327-.696-2.327-2.428-.644 2.481-.57zM28.392 19.9c-.103-.105-.449-.08-.449-.08l-5.838.617s-.351.103-.45.204c-.094.095-.163.392-.163.392l-.061.592-.511 4.936a5.83 5.83 0 0 0-.948-.111c-1.792 0-1.792 1.307-1.792 1.307 0 .197.453.912 1.716.912 1.56 0 2.091-.729 2.091-.729.063-.042.488-4.532.625-5.993.027-.284.091-.269.17-.349.082-.084.334-.153.334-.153l3.657-.391s.284.022.373.112c.088.09.075.337.075.337l-.486 4.628a4.032 4.032 0 0 0-.87-.113c-.494 0-.863.085-1.145.208.329-.178-.701.394-.321.178-.45.321-.524.724-.524.724s0 1.115 1.99 1.109c1.834 0 1.852-.992 1.852-.992.064-.217.082-.407.061-.574l.685-6.34s.029-.329-.07-.432z"/>
    <path d="M26.033 15.29c-.047-.999-.343-2.149-.818-3.288l-1.897-.446-.532-2.275.98.093c-.637-.898-1.365-1.673-2.133-2.2l.309 1.427-2.259-.242-.45-1.969c-.146-.072-.046-.101-.196-.165l-1.879-.422c-.095-.009-.19-.019-.286-.025V2.695c0-.128 0 0-.638 0s-.637-.128-.637 0v3.082a9.701 9.701 0 0 0-2.024.345 9.75 9.75 0 0 0-3.192 1.57l-.666 1.323-.987.283c-.741.955-1.56 2.317-1.909 3.506l2.263-.396-.373 2.443-2.288-.004c-.008.165 0 .553 0 .721 0 1.025.158 1.746.449 2.674l2.054.409.524 2.78-1.365-.398a9.87 9.87 0 0 0 3.031 2.907l-1.101-1.985 2.92.649.282 2.302a9.808 9.808 0 0 0 3.018.475c.198 0 .422-.016.654-.041v-2.419l3.108-.245.328-3.68 3.345-.373.248-3.33h2.116zm-13.426 3.304-3.16-.366-.366-2.849h3.526v3.215zm-.244-6.818-2.916.266.736-2.517 2.424-.422-.244 2.672zm1.02-5.001 2.583-.222.033 1.73-2.814.31.198-1.818zm-.29 5.497 2.907-.23v2.894l-3.055.042.148-2.706zm3.14 10.114-3.127-.283-.173-3.01 3.3.174v3.119zm.388-13.571h2.439l.399 2.853-2.838-.059V8.815zm2.838 9.624-2.838.155v-3.215h3.06l-.222 3.06zm1.02-3.461-.266-2.936 2.838.266.266 2.67h-2.838zm6.9-9.489.402 1.497 1.523.335-1.523.397-.402 1.435-.43-1.435-1.497-.397 1.53-.351zM6.617 2.695l.653 2.428 2.471.543-2.471.644-.653 2.327-.696-2.327-2.428-.644 2.481-.57z"/>
</svg>
