<svg xmlns="http://www.w3.org/2000/svg" viewBox="0 0 32 32">
    <path d="m9.689 11.388-.516-8.721h-.669l.232 6.605h-.698l-.362-6.605h-.669l.067 6.605h-.649V2.667h-.669l-.295 6.605h-.684l.136-6.605h-.684l-.407 8.721c.092.663.937 1.603 2.075 1.941l-.623 15.055c0 .522.667.95 1.482.95s1.482-.428 1.482-.95l-.604-15.061c1.129-.343 1.965-1.275 2.056-1.935zm18.444-1.939c0-2.215-1.731-6.782-3.867-6.782s-3.867 4.567-3.867 6.782c0 1.907 1.285 3.501 3.006 3.907l-.623 15.028c0 .522.668.95 1.484.95s1.484-.427 1.484-.95l-.604-15.033c1.712-.413 2.987-2.001 2.987-3.902zM14.478 4.673c1.705-2.288 2.793-2.598 2.513-1.04-.258 1.438-.254 5.902-.331 10.153l.606 14.598c0 .522-.669.95-1.487.95s-1.486-.428-1.486-.95l.451-11.195c-.334-.451-1.201-1.687-1.296-2.502-.119-1.01-.674-7.726 1.03-10.014z"/>
</svg>
